<?xml version="1.0" encoding="utf-8"?>
<svg width="3840.0017px" height="2160px" viewBox="0 0 3840.0017 2160" version="1.1" xmlns:xlink="http://www.w3.org/1999/xlink" xmlns="http://www.w3.org/2000/svg">
  <g id="群組">
    <path d="M0 2160L0 1288L205.5 1288L205.5 1080L413 1080L413 1608.5L546 1608.5L546 1356.5L723.5 1356.5L723.5 1666.5L904.001 1666.5L904.001 1176L1108.5 1176L1108.5 862.5L1234.5 862.5L1234.5 1666.5L1364 1666.5L1364 1288L1490 1288L1490 1666.5L1755.5 1666.5L1755.5 1080L1920 1080L1920 1288L2076 1288L2076 1608.5L2253 1608.5L2253 862.5L2321 862.5L2321 545.5L2447.5 545.5L2447.5 862.5L2508.5 862.5L2508.5 1288L2675.5 1288L2675.5 1666.5L2880 1666.5L2880 1356.5L3002.5 1356.5L3002.5 1608.5L3139 1608.5L3139 964.5L3299 964.5L3299 1608.5L3404.5 1608.5L3404.5 1666.5L3529.95 1666.5L3529.95 1176L3643 1176L3643 1356.5L3752 1356.5L3752 964.5L3840 964.5L3840 2160L0 2160Z" id="向量" fill="#7800C8" fill-rule="evenodd" stroke="none" />
    <path d="M1754.8 0L2083.8 0L2083.8 2160L1754.8 2160L1754.8 0Z" id="矩形" fill="none" fill-rule="evenodd" stroke="none" />
  </g>
</svg>