<?xml version="1.0" encoding="utf-8"?>
<svg width="3841.2002px" height="2160.0005px" viewBox="0 0 3841.2002 2160.0005" version="1.1" xmlns:xlink="http://www.w3.org/1999/xlink" xmlns="http://www.w3.org/2000/svg">
  <g id="群組-2">
    <path d="M0 2160L0 1258L133 1258L133 1174.5L308 1174.5L308 1396.5L443.5 1396.5L443.5 1258L541 1258L541 1423L603.5 1423L603.5 1182.5L702.5 1182.5L702.5 1258L792.5 1258L792.5 1000.5L904.5 1000.5L904.5 1474.5L1028.5 1474.5L1028.5 1302.5L1118.5 1302.5L1118.5 1080L1296.5 1080L1296.5 1423L1362.5 1423L1362.5 1080L1476.5 1080L1476.5 1302.5L1602.5 1302.5L1602.5 1474.5L1718.5 1474.5L1718.5 1114.5L1822.5 1114.5L1822.5 922.5L1944 922.5L1944 1174.5L2087 1174.5L2087 750L2188.5 750L2188.5 960L2320.5 960L2320.5 1135.5L2596 1135.5L2596 1258L2713.5 1258L2713.5 1000.5L2888 1000.5L2888 1302.5L3038 1302.5L3038 1474.5L3327.5 1474.5L3327.5 1080L3540 1080L3540 1302.5L3841.2 1302.5L3841.2 2160L0 2160Z" id="向量-2" fill="#6300A5" fill-rule="evenodd" stroke="none" />
    <path d="M1637 0L2229 0L2229 2160L1637 2160L1637 0Z" id="矩形" fill="none" fill-rule="evenodd" stroke="none" />
  </g>
</svg>