<?xml version="1.0" encoding="utf-8"?>
<svg width="3841.2004px" height="2160.0005px" viewBox="0 0 3841.2004 2160.0005" version="1.1" xmlns:xlink="http://www.w3.org/1999/xlink" xmlns="http://www.w3.org/2000/svg">
  <g id="群組">
    <path d="M0 1202L104 1202L104 926L257 926L257 1352L459.5 1352L459.5 1080L632.5 1080L632.5 1608L776 1608L776 846L895.5 846L895.5 1202L1002 1202L1002 1455L1145 1455L1145 992.5L1328 992.5L1328 1608L1630.5 1608L1630.5 1202L1797 1202L1797 1664.5L1920 1664.5L1920 1080L2046.5 1080L2046.5 1508L2176.5 1508L2176.5 926L2332.5 926L2332.5 1352L2482.5 1352L2482.5 992.5L2655.5 992.5L2655.5 1202L2788.5 1202L2788.5 750L2901.5 750L2901.5 1352L3041 1352L3041 992.5L3281 992.5L3281 1275L3463.5 1275L3463.5 926L3617 926L3617 1080L3841.2 1080L3841.2 2160L0 2160L0 1202Z" id="向量-3" fill="#42006D" fill-rule="evenodd" stroke="none" />
    <path d="M1637 0L2229 0L2229 2160L1637 2160L1637 0Z" id="矩形-2" fill="none" fill-rule="evenodd" stroke="none" />
  </g>
</svg>