<?xml version="1.0" encoding="utf-8"?>
<svg width="3841.2002px" height="2160px" viewBox="0 0 3841.2002 2160" version="1.1" xmlns:xlink="http://www.w3.org/1999/xlink" xmlns="http://www.w3.org/2000/svg">
  <g id="群組-3">
    <path d="M0 2160L0 975L198 975L198 791.5L391 791.5L391 1233.5L584 1233.5L584 975L759 975L759 1400L938 1400L938 975L1021.5 975L1021.5 1233.5L1234 1233.5L1234 887.5L1463 887.5L1463 1080L1592.5 1080L1592.5 1325L1705 1325L1705 975L1920 975L1920 1325L2125.5 1325L2125.5 696L2280 696L2280 1150L2438 1150L2438 791.5L2617.5 791.5L2617.5 1080L2896.5 1080L2896.5 1400L3042.5 1400L3042.5 887.5L3143.5 887.5L3143.5 1200L3304 1200L3304 696L3468.5 696L3468.5 825L3586.5 825L3586.5 1044.5L3841.2 1044.5L3841.2 2160L0 2160Z" id="向量" fill="#37005B" fill-rule="evenodd" stroke="none" />
    <path d="M1585 0L2585 0L2585 2160L1585 2160L1585 0Z" id="矩形" fill="none" fill-rule="evenodd" stroke="none" />
  </g>
</svg>